<mxfile host="65bd71144e">
    <diagram id="LzqoB34IOj2d35nFC9Gh" name="Page-1">
        <mxGraphModel dx="1647" dy="1240" grid="1" gridSize="10" guides="1" tooltips="1" connect="1" arrows="1" fold="1" page="1" pageScale="1" pageWidth="850" pageHeight="1100" math="0" shadow="0">
            <root>
                <mxCell id="0"/>
                <mxCell id="1" parent="0"/>
                <mxCell id="2" value="" style="rounded=0;whiteSpace=wrap;html=1;" vertex="1" parent="1">
                    <mxGeometry x="40" y="20" width="760" height="1150" as="geometry"/>
                </mxCell>
                <mxCell id="4" value="" style="rounded=0;whiteSpace=wrap;html=1;" vertex="1" parent="1">
                    <mxGeometry x="40" y="20" width="760" height="60" as="geometry"/>
                </mxCell>
                <mxCell id="5" value="" style="rounded=0;whiteSpace=wrap;html=1;" vertex="1" parent="1">
                    <mxGeometry x="40" y="20" width="120" height="60" as="geometry"/>
                </mxCell>
                <mxCell id="6" value="&lt;font style=&quot;font-size: 24px;&quot;&gt;LOGO&lt;/font&gt;" style="text;html=1;strokeColor=none;fillColor=none;align=center;verticalAlign=middle;whiteSpace=wrap;rounded=0;" vertex="1" parent="1">
                    <mxGeometry x="70" y="35" width="60" height="30" as="geometry"/>
                </mxCell>
                <mxCell id="7" value="" style="rounded=0;whiteSpace=wrap;html=1;" vertex="1" parent="1">
                    <mxGeometry x="290" y="20" width="120" height="60" as="geometry"/>
                </mxCell>
                <mxCell id="8" value="" style="rounded=0;whiteSpace=wrap;html=1;" vertex="1" parent="1">
                    <mxGeometry x="550" y="20" width="120" height="60" as="geometry"/>
                </mxCell>
                <mxCell id="9" value="&lt;font style=&quot;font-size: 24px;&quot;&gt;music page&lt;/font&gt;" style="text;html=1;strokeColor=none;fillColor=none;align=center;verticalAlign=middle;whiteSpace=wrap;rounded=0;" vertex="1" parent="1">
                    <mxGeometry x="320" y="35" width="60" height="30" as="geometry"/>
                </mxCell>
                <mxCell id="10" value="&lt;span style=&quot;font-size: 24px;&quot;&gt;movie&lt;br&gt;page&lt;/span&gt;" style="text;html=1;strokeColor=none;fillColor=none;align=center;verticalAlign=middle;whiteSpace=wrap;rounded=0;" vertex="1" parent="1">
                    <mxGeometry x="580" y="35" width="60" height="30" as="geometry"/>
                </mxCell>
                <mxCell id="12" style="edgeStyle=none;html=1;exitX=0.25;exitY=1;exitDx=0;exitDy=0;entryX=0.5;entryY=1;entryDx=0;entryDy=0;fontSize=24;" edge="1" parent="1" source="10" target="10">
                    <mxGeometry relative="1" as="geometry"/>
                </mxCell>
                <mxCell id="15" value="" style="rounded=0;whiteSpace=wrap;html=1;fontSize=24;" vertex="1" parent="1">
                    <mxGeometry x="125" y="490" width="590" height="480" as="geometry"/>
                </mxCell>
                <mxCell id="20" value="&lt;p style=&quot;border: 0px solid rgb(217, 217, 227); box-sizing: border-box; --tw-border-spacing-x:0; --tw-border-spacing-y:0; --tw-translate-x:0; --tw-translate-y:0; --tw-rotate:0; --tw-skew-x:0; --tw-skew-y:0; --tw-scale-x:1; --tw-scale-y:1; --tw-pan-x: ; --tw-pan-y: ; --tw-pinch-zoom: ; --tw-scroll-snap-strictness:proximity; --tw-ordinal: ; --tw-slashed-zero: ; --tw-numeric-figure: ; --tw-numeric-spacing: ; --tw-numeric-fraction: ; --tw-ring-inset: ; --tw-ring-offset-width:0px; --tw-ring-offset-color:#fff; --tw-ring-color:rgba(59,130,246,0.5); --tw-ring-offset-shadow:0 0 transparent; --tw-ring-shadow:0 0 transparent; --tw-shadow:0 0 transparent; --tw-shadow-colored:0 0 transparent; --tw-blur: ; --tw-brightness: ; --tw-contrast: ; --tw-grayscale: ; --tw-hue-rotate: ; --tw-invert: ; --tw-saturate: ; --tw-sepia: ; --tw-drop-shadow: ; --tw-backdrop-blur: ; --tw-backdrop-brightness: ; --tw-backdrop-contrast: ; --tw-backdrop-grayscale: ; --tw-backdrop-hue-rotate: ; --tw-backdrop-invert: ; --tw-backdrop-opacity: ; --tw-backdrop-saturate: ; --tw-backdrop-sepia: ; margin: 0px 0px 1.25em; font-family: Söhne, ui-sans-serif, system-ui, -apple-system, &amp;quot;Segoe UI&amp;quot;, Roboto, Ubuntu, Cantarell, &amp;quot;Noto Sans&amp;quot;, sans-serif, &amp;quot;Helvetica Neue&amp;quot;, Arial, &amp;quot;Apple Color Emoji&amp;quot;, &amp;quot;Segoe UI Emoji&amp;quot;, &amp;quot;Segoe UI Symbol&amp;quot;, &amp;quot;Noto Color Emoji&amp;quot;; font-size: 16px; text-align: start;&quot;&gt;&lt;span style=&quot;background-color: rgb(0, 0, 0);&quot;&gt;Welcome to our website, dedicated to celebrating the most remarkable films and music of one of the greatest decades in art.&lt;/span&gt;&lt;/p&gt;&lt;p style=&quot;border: 0px solid rgb(217, 217, 227); box-sizing: border-box; --tw-border-spacing-x:0; --tw-border-spacing-y:0; --tw-translate-x:0; --tw-translate-y:0; --tw-rotate:0; --tw-skew-x:0; --tw-skew-y:0; --tw-scale-x:1; --tw-scale-y:1; --tw-pan-x: ; --tw-pan-y: ; --tw-pinch-zoom: ; --tw-scroll-snap-strictness:proximity; --tw-ordinal: ; --tw-slashed-zero: ; --tw-numeric-figure: ; --tw-numeric-spacing: ; --tw-numeric-fraction: ; --tw-ring-inset: ; --tw-ring-offset-width:0px; --tw-ring-offset-color:#fff; --tw-ring-color:rgba(59,130,246,0.5); --tw-ring-offset-shadow:0 0 transparent; --tw-ring-shadow:0 0 transparent; --tw-shadow:0 0 transparent; --tw-shadow-colored:0 0 transparent; --tw-blur: ; --tw-brightness: ; --tw-contrast: ; --tw-grayscale: ; --tw-hue-rotate: ; --tw-invert: ; --tw-saturate: ; --tw-sepia: ; --tw-drop-shadow: ; --tw-backdrop-blur: ; --tw-backdrop-brightness: ; --tw-backdrop-contrast: ; --tw-backdrop-grayscale: ; --tw-backdrop-hue-rotate: ; --tw-backdrop-invert: ; --tw-backdrop-opacity: ; --tw-backdrop-saturate: ; --tw-backdrop-sepia: ; margin: 1.25em 0px; font-family: Söhne, ui-sans-serif, system-ui, -apple-system, &amp;quot;Segoe UI&amp;quot;, Roboto, Ubuntu, Cantarell, &amp;quot;Noto Sans&amp;quot;, sans-serif, &amp;quot;Helvetica Neue&amp;quot;, Arial, &amp;quot;Apple Color Emoji&amp;quot;, &amp;quot;Segoe UI Emoji&amp;quot;, &amp;quot;Segoe UI Symbol&amp;quot;, &amp;quot;Noto Color Emoji&amp;quot;; font-size: 16px; text-align: start;&quot;&gt;&lt;span style=&quot;background-color: rgb(0, 0, 0);&quot;&gt;The 90s were a significant period in the history of cinema and music, and we are excited to be able to revisit these masterpieces with you. Our website brings together information and curiosities about all the films that won the Oscar for Best Picture and all the songs that won the Grammy for Best Song in the 90s.&lt;/span&gt;&lt;/p&gt;&lt;p style=&quot;border: 0px solid rgb(217, 217, 227); box-sizing: border-box; --tw-border-spacing-x:0; --tw-border-spacing-y:0; --tw-translate-x:0; --tw-translate-y:0; --tw-rotate:0; --tw-skew-x:0; --tw-skew-y:0; --tw-scale-x:1; --tw-scale-y:1; --tw-pan-x: ; --tw-pan-y: ; --tw-pinch-zoom: ; --tw-scroll-snap-strictness:proximity; --tw-ordinal: ; --tw-slashed-zero: ; --tw-numeric-figure: ; --tw-numeric-spacing: ; --tw-numeric-fraction: ; --tw-ring-inset: ; --tw-ring-offset-width:0px; --tw-ring-offset-color:#fff; --tw-ring-color:rgba(59,130,246,0.5); --tw-ring-offset-shadow:0 0 transparent; --tw-ring-shadow:0 0 transparent; --tw-shadow:0 0 transparent; --tw-shadow-colored:0 0 transparent; --tw-blur: ; --tw-brightness: ; --tw-contrast: ; --tw-grayscale: ; --tw-hue-rotate: ; --tw-invert: ; --tw-saturate: ; --tw-sepia: ; --tw-drop-shadow: ; --tw-backdrop-blur: ; --tw-backdrop-brightness: ; --tw-backdrop-contrast: ; --tw-backdrop-grayscale: ; --tw-backdrop-hue-rotate: ; --tw-backdrop-invert: ; --tw-backdrop-opacity: ; --tw-backdrop-saturate: ; --tw-backdrop-sepia: ; margin: 1.25em 0px; font-family: Söhne, ui-sans-serif, system-ui, -apple-system, &amp;quot;Segoe UI&amp;quot;, Roboto, Ubuntu, Cantarell, &amp;quot;Noto Sans&amp;quot;, sans-serif, &amp;quot;Helvetica Neue&amp;quot;, Arial, &amp;quot;Apple Color Emoji&amp;quot;, &amp;quot;Segoe UI Emoji&amp;quot;, &amp;quot;Segoe UI Symbol&amp;quot;, &amp;quot;Noto Color Emoji&amp;quot;; font-size: 16px; text-align: start;&quot;&gt;&lt;span style=&quot;background-color: rgb(0, 0, 0);&quot;&gt;We invite you to explore our website and discover these works of art that helped shape cinema and music as we know it today. You will be able to learn more about the most acclaimed films of the decade, such as &quot;The Silence of the Lambs&quot;, &quot;Forrest Gump&quot;, &quot;Titanic&quot;, and others. Additionally, you will be able to discover the most iconic songs of the 90s, such as &quot;My Heart Will Go On&quot; by Celine Dion, &quot;Tears in Heaven&quot; by Eric Clapton, and many more.&lt;/span&gt;&lt;/p&gt;&lt;p style=&quot;border: 0px solid rgb(217, 217, 227); box-sizing: border-box; --tw-border-spacing-x:0; --tw-border-spacing-y:0; --tw-translate-x:0; --tw-translate-y:0; --tw-rotate:0; --tw-skew-x:0; --tw-skew-y:0; --tw-scale-x:1; --tw-scale-y:1; --tw-pan-x: ; --tw-pan-y: ; --tw-pinch-zoom: ; --tw-scroll-snap-strictness:proximity; --tw-ordinal: ; --tw-slashed-zero: ; --tw-numeric-figure: ; --tw-numeric-spacing: ; --tw-numeric-fraction: ; --tw-ring-inset: ; --tw-ring-offset-width:0px; --tw-ring-offset-color:#fff; --tw-ring-color:rgba(59,130,246,0.5); --tw-ring-offset-shadow:0 0 transparent; --tw-ring-shadow:0 0 transparent; --tw-shadow:0 0 transparent; --tw-shadow-colored:0 0 transparent; --tw-blur: ; --tw-brightness: ; --tw-contrast: ; --tw-grayscale: ; --tw-hue-rotate: ; --tw-invert: ; --tw-saturate: ; --tw-sepia: ; --tw-drop-shadow: ; --tw-backdrop-blur: ; --tw-backdrop-brightness: ; --tw-backdrop-contrast: ; --tw-backdrop-grayscale: ; --tw-backdrop-hue-rotate: ; --tw-backdrop-invert: ; --tw-backdrop-opacity: ; --tw-backdrop-saturate: ; --tw-backdrop-sepia: ; margin: 1.25em 0px 0px; font-family: Söhne, ui-sans-serif, system-ui, -apple-system, &amp;quot;Segoe UI&amp;quot;, Roboto, Ubuntu, Cantarell, &amp;quot;Noto Sans&amp;quot;, sans-serif, &amp;quot;Helvetica Neue&amp;quot;, Arial, &amp;quot;Apple Color Emoji&amp;quot;, &amp;quot;Segoe UI Emoji&amp;quot;, &amp;quot;Segoe UI Symbol&amp;quot;, &amp;quot;Noto Color Emoji&amp;quot;; font-size: 16px; text-align: start;&quot;&gt;&lt;span style=&quot;background-color: rgb(0, 0, 0);&quot;&gt;We hope that our website is a source of entertainment and knowledge about the most important works of the 90s. Thank you for visiting, and we hope you enjoy exploring the masterpieces of cinema and music from this remarkable period.&lt;/span&gt;&lt;/p&gt;" style="text;html=1;strokeColor=none;fillColor=none;align=center;verticalAlign=middle;whiteSpace=wrap;rounded=0;fontSize=24;" vertex="1" parent="1">
                    <mxGeometry x="150" y="490" width="540" height="480" as="geometry"/>
                </mxCell>
                <mxCell id="24" value="" style="shape=image;verticalLabelPosition=bottom;labelBackgroundColor=default;verticalAlign=top;aspect=fixed;imageAspect=0;image=data:image/png,iVBORw0KGgoAAAANSUhEUgAAASwAAAEsCAYAAAB5fY51AAAAAXNSR0IArs4c6QAAIABJREFUeF7tXQeUU1XX3ZleadKRIh2pKgIWRESKYqGq9K4UQYqCvXz+n5+VKiogTRCliNioFoqoVAFFpPdeBphekvnXvpk3JJlkJskkM3mPc9eaNTB5775z97lv57R7rykzMzMT0gQBQUAQ0AECJiEsHWhJRBQEBAGFgBCWTARBQBDQDQJCWLpRlQgqCAgCQlgyBwQBQUA3CAhh6UZVIqggIAgIYckcEAQEAd0gIISlG1WJoIKAICCEJXNAEBAEdIOAEJZuVCWCCgKCgBCWzAFBQBDQDQJCWLpRlQgqCAgCQlgyBwQBQUA3CAhh6UZVIqggIAgIYckcEAQEAd0gIISlG1WJoIKAICCEJXNAEBAEdIOAEJZuVCWCCgKCgBCWzAFBQBDQDQJCWLpRlQgqCAgCQlgyBwQBQUA3CAhh6UZVIqggIAgIYckcEAQEAd0gIISlG1WJoIKAICCEJXNAEBAEdIOAEJZuVCWCCgKCgBCWzAFBQBDQDQJCWLpRlQgqCAgCQlgyBwQBQUA3CAhh6UZVIqggIAgIYckcEAQEAd0gIISlG1WJoIKAICCEJXNAEBAEdIOAEJZuVCWCCgKCgBCWzAFBQBDQDQJCWLpRlQgqCAgCQlgyBwQBQUA3CAhh6UZVIqggIAgIYckcEAQEAd0gIISlG1WJoIKAICCEJXNAEBAEdIOAEJZuVCWCCgKCgBCWzAFBQBDQDQJCWLpRlQgqCAgCQlgyBwQBQUA3CAhh6UZVIqggIAgIYckcEAQEAd0gIISlG1WJoIKAICCEJXNAEBAEdIOAEJZuVCWCCgKCgBCWzAFBQBDQDQJCWLpRlQgqCAgCQlgyBwQBQUA3CAhh6UZVIqggIAgIYckcEAQEAd0gIISlG1WJoIKAICCEJXNAEBAEdIOAEJZuVCWCCgKCgBCWzAFBQBDQDQJCWLpRlQgqCAgCQlgyBwQBQUA3CAhh6UZVIqggIAgIYckcEAQEAd0gIISlG1WJoIKAICCEJXMgVwQyMzPBH4vFon5fuXwZJ08ex6GDB3Hq5Ekc2L8PZ06fUn1YPzuBoKAgWMxmJCYmokzZsihXrjxCw8JQqXIV9e/SZcqgdp26qFK1KmJjY2AyBSEoyKR+m0wm0Ygg4BIBISyZHDkQIDnxJzk5GSeOH8WOP//Elj9+x+HDhxB/9Qrir8bDFGRSnwcHB6NkyZKIi4vDpYsX7fqqWLkyypUthytXrigii46KRokbbkBKSgoiIyNx6dIlhIWFoUmzO9Co0a1ocscditRIePwR8pLJ6YiAEJbMCYWARlKX4+KwfdtW/LRmFbZs+kOREIkjPCJcEVRCfLzPECtarBhiYmIQERGB2NgiivRiYmPR4t6WaNW6LWrUqq0+E/LyGeS670gIS/cq9H4AmquXnJyEbVs2Y9lXS7Bl8yZcvHDe6tZZMpGWlur0AVbrJzPPh2seXmYmoDl7vIv/d2wagYWHRyAz04Ky5cqjTbsH0bJVa5SvUEGIK0+0jX+BEJbxdZxjhBpRnT51CqtXLseypUtw7MgRZUnRXXMkKcewUpEiwShR3IQiRSwIC7PgxMlMhIVmokxpSxaJZWZzWZGYTJgzTIhPCEZYKEkwGEeOA+cuWLIYzKTIizLZNlpWN1ashBIlSgAmE+6+pwUe6dBZiOs6nK+2QxbCuo4mgEZURw4fwpKFX+LbZUtxOe6SU0tKI6nwMBNiYjMRHm5BZAR/Z+LChSAkJplwYwUzShTPRKlSZpQrZ0ZomAOYWRx05YoJp04F48jhECQlAyWKW1C8iAXRkZkICTLhxJlQHDwajMRkK9FZHKwvxsKKFyuOyKgoPND+YbRr/xBKliwlMa7raO5qQxXCuk6UzhjVkUOHsHjhF/h22VdgrMqZy0eiCgsDisRaEBGRCVOQMnBQupQZtWploGGDDNSrl45yZc3qOo9bJnD8aDD27g3Bnj0h+Gt3KC5fCsINxc0oGpOJcxdDsP9ICOKuWt1GW8OrRs1aaNDoFtzdvIWyuBjAl3Z9ISCEZXB9MxbE8oLl33+HmdM/xoF9+3KMWLOmSFKxRTKRkW5CZGQmmjZJQ4sWaahfP11ZRT5vJCQzkJJkwsF9wfj113DsPxSsYl1mM3DoWCiOnw5GWjqTAkB4eBjua9USA4eMRP36DRAUHCxWls+VEtgdCmEFtn7yJZ3ZbMbmP37H9I8+xB+/b0RaWlqO/sJpTRW1KCsqODgTdzRLR5fOybi5Trp3FpS3EluAzAzAkgacPRGEDRvDcOhICMLCMpXFtWNPGOITrPGuokWj8UiHjujVdzBuqlpVEZe06wMBISwD6pmxKpYjfLlgHhbMm4szp0/bjZLkpLJ2iqSAGjUy0OGRFLRpnYoyZcyFiwitLhJXKmBJAo4dCcax48E4eS4YP/8ejp3/hCElzSp/xYplMODJp/Fwh65ghlHqtgpXdQXxdCGsgkC5AJ/BWNW/e/7Bx1Mm4cfVq3Jk/Bg0L1KE5QpAuXIW9OmVhFb3pSImJu8ShQIcBqBZXCmAOQFITjDhwqUgbNkVih9+icTu/aFITWO8LQTtHmiFQUPGoladm1XpgzTjIiCEZSDdcjnM+nW/4MOJ4/Hn9m053b/wTBQtai0/oDX1UPuUwreo8sLfYnUTzYlWi4vWV2qaCUtXRWLBt1E4fS5IZRWrV6+AIcPHoO2DnVQVvTRjIiCEZRC9JiUl4qvFCzFr+jQcO3rEblS0qhirCgoGWrVMQd8+SahWrZBdP09wzwrOW5IBc7zVXWTb8U8o5iyNxpZdYUhJBUqVjMaAQQPRtftQFClaVFxETzDWybVCWDpRVG5ikqxmzZiGubM+zbGej/cVL2bBjTda0LNHEtq2SSnYYLov8aW1lQJkJAAkL7qNtLZ+3BiOecuicOBoCMJCg9GrdycMGPIqSpUu7cunS18BgIAQVgAoIT8i5EZWDOewPKFlizT065eIOrUz8vOowLiXhaXp1riWJcFaFsF28kww5n8ThZXrI5CaHoKBAzqg/5D/oGixkmqdJJvEtwJDhfmRQggrP+gV8r3XyGoGLl28lC0Ns3/Fillwb4s0FavyWx1VIY6fsSySFl1E/ltrm3aEYcaiIjh1LhyDB3dClx6vYOvW3co9vO322xERESmuYiHqLb+PFsLKL4KFdL8rsmK8qlJFC7p0SUb7B1P8U/BZSGN2fCytq2zSSr/26flLQfjmx1gcO1MMXR9/DIhsgYVfLkOdunXR5fFuKFWqtJBWgOjQUzGEsDxFLACuJ1nNnjEdc2ZNt7OsKFrZshb07J6EDh2MTVaaGhRpJQJmLuWxIS1+fj4uFOFR1VCm+jAsWR6M2bPm4/627dBv4JNCWgEwj70RQQjLG9QK8R7GY+Z/NhvTpk7GmdNn7NxAxqsGDUhCj+5JgVdX5UfMXFla6pGmEASH10Jy+AB8POc0li39Bo9374n+g56SoLwfdeKvroWw/IWsH/plBfv6tT9j8oT3sWP79uwnZLuBnZPRvv31YVk5dQ/jc8a0skkrsj7+PtkBU6fvwPZt2zFi1Bj07j9Qarb8ME/92aUQlj/R9XHfhw8dxAfv/A8rfvjOrmdaVk88lozevZIDvxDUx5jYdqcC8VeBDG6K6rhW2xSGkOim+HpdM0z/9CdkZGRg2MhR6Nz1CbWrqTR9ICCEpQ89gXGrie+/i3lzZiKN2xdkNe5R1eFRazFoxYo6Kgb1E+4sKs24bK2Kz9FMUTCHt8K0heUxb/4K1KhVC6OeHYsWLVtJEN5P+vB1t0JYvkbUD/1di1tNxJnT57KfwP2q7rozDb16JqFRwwLeXcEP4/RJl5mAmRXxJC2H3Z3PXghCRmYsTsffg9kL0/HHH3/ivvtbY/jIMajfsJFPHi+d+BcBISz/4uuT3tf9wrjVu9ix/U+7/hrUT8fwpxMVaUmzQcBiLXfIuGJfo7V2UziWrY5Aq+ZhSLQ0w6z5B5CQkIgnhwxHv4GD1HIeaYGNgBBWYOsHcZcuYdL497BwwTx7VzAyE8OHJaJ7tyT9LrXxI/aMZ5GwWFiqnZWx50AIPv48BonJJjzcpgS2/lsDK1b9idKly+DZ519Exy6PiWvoR534omshLF+g6Kc+mBX8btnXmDr5PRzYf8jOFeT+Vf36StwqN+i53lDFs1KuXfXdzxGYuSgatzcwo/JNNfH9T5nYt+8oWrVug+Ejn0X9hg39pE3p1hcICGH5AkU/9cHDIt5/+y27rCBLGLjhXv++SbivZapYV7kyljVjaKZrmJWP4GLpTxZEY/naCHRql4nTcTXx3cpDCA8PxzOjn0Of/gMRLllDP83o/HcrhJV/DP3SA62r+XNn45Op43Hm9Hn1DK4R5F5W/fslocOjyddVcai3IKu9tC5bq+G1RtfwoyzXsPpNRbFzbzHsP3AKdzW/ByNGP4fGtzfx9nFyn58REMLyM8Dedr/zz+2Y8N7b2LB+XXYXpUtb0OKeVDzxeLIxdl7wFhxP7mPWkAH4y/YB+M+/jcKcJVFoeYcZCWmVsern0+psxCFPP4Mnhz6NIkWKePIUubaAEBDCKiCgPXkMX5yPJk/A9E+mICHeWlBEV7B0KQueHpaIhx+yCcp40vF1em1mmpWwbK0sbkfz4bwYdSpPtZsi8e/hEth/4CzqNWiIUc+Nw70tW12naAX2sIWwAlA/Knb1zltY8f21ivaiRa3bxfTulSTWlac6c2FlLVkRiVlLonF343TEp1bC6l/OKStr1LPjMGjwUIlleYpzAVwvhFUAIHv6iEVfLsDHU97HsaMnxbryFDwX17OIVMWybCrgba2sUiXDse9IDE6fuaJiWc+MeQ63NZZYlo/g91k3Qlg+g9I3HcXFXcK7/30TJC2t0bpq2yYVPXsko3o1z3YNXfZNBObNj0K9uhlq19EqlQtn+c76DeGYNDlaHYo6ZnSCKnYNDfENZm71YgEyuM7wiv06Q2VlLY5GrWpmJKWVwZY/L6m1heNefBW9+vWXuiy3wC24i4SwCg5rt560euVyTJnwLv7ZvSf7+koVzejeLRkPPeT5TgwffxKNBV9EIu5yEJo0ScPoZxLVUfPutuQUk7q/bBkL6tVNR0aGCaVLmxEb69mxYKvWhGPqR9E4eDAEJUtaMOSpRLXBoLv9UI6pU6PVCTnN705DSgpQq6YZ5cu7T8CqLivOfsmOljHM4L5almjs2pOJtPQMtH/4UTz9zCjUrF3HXajkugJAQAirAEB29xGMn4x/9218Om1qdlV7kSIW1K1rrbvydAnOqVPB2PhbGObNj8SBgyGqLILHz48e6R5paSTxx6YwRXipKSYkJwMDBiSp3SFKlHDv+PpfN4bhzJlgLF4Sgb/+DlVwxERnqmVFLM/Ii7Qox8yZUVjzUzg4ptRU6wnQfXsnqXWUzJ6601T1O91CVr/btI/mR+Ozr6OQlm7K/mvFSpXx3PMvov0jHdzpWq4pIASEsAoIaHcec/TIYVUouvz7b+3cQW7K91hXz+quPp4WjTVrwnHxYhASk0xISrK+jO6SVlxcEObMjcLKVeE4czYYGRnW05bZWGHfu2cSypTJmyi2bgvF+Akxiqh4FoTWh7ukRYL6fEEktm0Pw5Gjwbh69Rqp9OuTpJIQ7sihBGfwPT6rxMHGMFv9awRmLIzCwaP2PiqzhSr4Hi7bz7gzfwviGiGsgkDZzWc4uoO0rqpVNWNAf2tVuyft8hUT/vtWLFavjkC6Q9grL9I6dCgE4yfG4J89IYogNLLj7hDNmqah+xPJuPW2dERF5u0WkqDoCn65MBKX4nKeylzxRjMGDbQeP+Zoae3eHYrJH0Zj0+ZQpKdbrSo2ytGwYQa6dknG3XemqpOs3W3O3EIG36fMi8HqDeF23VjdwtGoWbu2u93LdX5GQAjLzwB70v1U1l59PNmu9uq+e9MwYEAibq7jWbCdz+WL/sGEGPyd5YbZyqKR1pDBibilUTpCsowLWkQTJsZgx06r66aRRPHiFnWgReXKZjw5KAncKcLdduFCEF5+rQjWrw/LcQvliI7K6R7SjZw+Ixq7doWqQL3WSFaVK5lRuYoZ/fskoUED9+VQ40nPcgsT7EVx5hZWr1kLY8a9gDZtH3B3qHKdnxEQwvIzwO52fzkuDu+89SYWffF59i0sFu3TmzuJJnl1+g3JZsGXkZg9J0rFfhwbyYIWztjnEnBP81SsWBmBz+ZFgQRzNZ7xKqv7RZKgFXNHszS1UWDNGhnKtfSkbdoUhg8mRjslT/ZjG9OiHLPmROHC+SBlWWkWIkmTj61VK0PFvxo2SPdYDrqFzBQylqXt4sDnr9oQgU/pFh6zdwtfeOU1DHhyiGQLPVG2H68VwvIjuJ50vfmP3zHxg3ex6fffsm/jusFRIxPwyMPeV7YzbvQFSWtu7qRVu3YGrlw1Yc+eUMTH27tfzAx27picvTuEp2SlWWqbNodhfC6kFRwMVK+eoWJdjL3FXw2yc2e5FfQD7VKVHFVv8pw0NWDVUp04+6U6/3B94fwY/Lbd3grs0asvhgwfgXLlK3iiTrnWTwgIYfkJWE+7XbzwC3w0eSKOHT2ibs1P/Mrx2e6QFkmIFpltUFyLWdGqatggA2FhmZ5bNDbCsO+8SEsjQ1s5ypczo2Ytszq+7NZb0xGeTzmcbTtzNSEIk+ZE4+vVkXbw3X1PC7WLw62Nb/dUpXK9HxAQwvIDqN50aY1fTUVCvDXnTnfwvpZpGNDfu/iVp6TleH3Vm8yoVi1DWTNeuV4uQHCHtGxv1WJnAwckofX9qYiKcj/A7koPznZw4LW0sKzlDdfurJEVx2otcSxvprXP7xHC8jmknnfIPdvf/r83MHP6J9k308LiKTjcmYHBbl+0vCwt7RksxqxdKwMkCV+Slda/u6RFsmINGi28xrdyz/r8kxVlyN6N9Ko9qlrV+5kL17KZRYsVw7gXX1FnGUorfASEsApfB/jjt434/LM5OeqvxoxKRJfOyT6VkKTFgPb8z6Nw7lzOMgM+jLGisc8mqF0hfGHROBsASYs1Xh99Yq1+d9ZYmPqf1+PR8t7UfLmiOfpm4P1yVuDd5sPf/wzDtC+isetfa4ZUa6zHYnmDtMJHQAir8HWAWTOm4cfVK7MD7lr2jiUHD7RL8emuoswWvvNeDNauC0d6LhUBTZukY/SoBNT3YBmPJ1BSjnffi8EvecnRNA1j3KzM9+T53IU0Pc4+U/jHDith7dxjT1g9evfFf956x5Pu5Vo/ISCE5SdgPen2P6++hK2bN2H333+p20qVsoCBZpY0tGvrfYbQUQYucXnzzVgsXxmBtDwO2iFp8rzDJwcmqtorXzbK8eHUaCz9OhJXruReH+EvOVTFOzOFNkM7wT2yPovB6l/tC0jvb9MO02bN9SUE0peXCAhheQmcL2/r3qWjyg6ePn1KdcuX9M470zBsSKI6b9AXTVsX+NXXEbhyxbkr6PgcuoNdOyejZ89kVPBgkXFu8mpyLP06ApcLUQ5npQ2uCIuZwrkLFvlCDdJHPhEQwsongL64vVunR3Hs2FGcOXNadcedRZs2TUO3J5J9QljukAQD3Pw5fz5Y1WFpjaQ1YngiOrqxSDkvLNyRg5Yll+icOu0/OSgndx9VFpbN94Gr0gaeEL3yp/V5DU8+LwAEhLAKAOS8HlHtxjJ2l9Al5Jo9XxCWOyTBhdXMRq5cGYHffg/D0WP2ZMHtYF56IR6t7kvNXsKT15icuaPcHiY3y4pyNGmcDu4O8eeOEEVaWrU9+1NV+WMT0KK593JocvEoe8awuH2ybZswKwbzlkXZ/a1S5Sr4ZeMmT4cs1/sBASEsP4DqaZeOhEWXkATCXRrKlvU+fuQuWfEUHpLBiZPBmPFpFNavD1cLlblDg9a4J5e2hEdbd+juOD2R48YKZrV8Z97nkWqHh/Png7JJy3Epkady2MpLwlJ7YwlhuavGgLhOCCsA1OBIWNzfibGjzp1S8kVYEyfFYNFi17EiWjQaWWmV7idOBGPx0gi1ywMzeRpp0V2k5Tfi6US17tATsvBGDq5n/HJRJL5aGmlXfsEaseLFMsEMqqdy2BEWXUIesuoGYZUpUxa/bdsZADNFRBDCCoA54EhYFSua0bljilpD6K2FxZKBdRvCcPiw8xonR7LSYGB91JYt1l0e9h8IUTuMaqTFrW64O0KvHkng2kN32rffRWDajCiP5WDfu/4KxeQp0fjrr1DQSqMcJFZW4fMwWVbhe1t24SyGxWc6cwn594MnzrozXLnGzwgIYfkZYHe69wdh1WtYOsfaQE0WV2RlS1rc5YFW1tGjwdnuIa0bFpSykDPUvlTJ5TCfHVtE7QJhuzZQu/i229IxZlSCy2p63sOF26sc5GBh66svx+OBB1IQ5qYcjgI6yxLymvGzYjDfIYYlhOXOLC6Ya4SwCgbnXJ+Sg7BuNCt3MD8W1ldfReDvf0KVG8etXXbsCFU7H3A93tAhiXluEcOKeO4U+s+/IeCGfqyKJ1G887+ruL+V+5sJcj+r7X+GIiQkE9zjasvWMBWTuvuuNIwYnoC6N+e+64IrOV5/NR7t2qV4fZCFszqslDQTJs6OwaIf7BdAC2EFwEuSJYIQVgDowpGwuI7wsa4pamdPb11CbTvif/4JVZXtZ84EoUf3ZDzUPkUdAuHOFjGJiSbM+DQaZ84GYedO7voJvPFaPO66K4+qUxtMtR0gSHr//V8sjh/3Xo7DR4Kx+58QXLoUpIiT5OttUyfoXLKvdHdVh8X1hNv/3uvto+Q+HyIghOVDML3tqkalcuoAT/6w8VgvruPr0S0531Xm2pq9smUtuPnmDLU1iyfNbIZyCU+eDFbV97TY3CE7x2dQjnXrw1GyJONPZu/kuBSEk6eCUbyYBeXKmb1fsqRt4selOTbNFWFJWYMnM8a/1wph+Rdft3p3rHRniQG3IO7SJRlc05ffRmuLJOMN0WjPJuHk5372o8Wx8tOPT/owZ22T7LBbA4+t59KcNRvtl+YIYeV3BvrufiEs32HpdU89unbC0aOHcfqUdWkOLSxm4Xi0F8/gk+ZbBFzt6+5qtwYeQrHix3W+FUJ68woBISyvYPPtTWNHP4NdO//E/r3WOAktLNYadeuWhEcf8d3iZ99Krd/eLClZRaMO0HJ7ZO7W8Nde+9Rj8xb3Ys7nC/U7YANJLoQVAMqcMvEDrF/7C7Zv3ZItDfc259Kctq1T3T6wNACGogsRVA3WJfs93Sn4ouWRmL04Gmcv2i8Ob35vS8yZ/6UuxmZ0IYWwAkDDPIBi/tzZ+OG7b7KlKVrEgmFDE9G1a4rHAeoAGFLgisCAOzOEDnthUeBPF0Vj7tIodfCsbevZpx/e+O/bgTum60gyIawAUPbVq1cw4b138NnsmdnScMeGzp2T0aVzCsrlYz1hAAwvoERwdVx9SqoJE+c4r8EaM/YFDB0xMqDGcb0KI4QVIJrniTnTPv4w+xAK1mI1bZqOvr2T1EGn0nyDgIpfcQ2hw87TB46EYOr8aKzbbJ8hVHu6v/QKHu8me7r7RgP560UIK3/4+exu7un+8YeTcfrUSdVneDjAnQtYlc5tkqX5BgG1JIfxK4dNMFautx6keui4/drLmrXrYMzY58FdR6UVPgJCWIWvAyXBr+vXYdL49+wC78wWdu+WjIceSsENJXxzck6ADLdQxCBJmXn4BE9Ss6mf5T9nuohftW73AIaPHIO69eoXiszyUHsEhLACZEacPXsG7/3vv/h6ybWteBl4f/jhFLWkpnIl7/fFCpAhFroYrsoZmBWcMjcGy9dG5JBx2IhReHLIMMTExha6/CIAIIQVQLNg/Htv49NPPkJqqnWNXKlSQJPbU5SVJXGsfCoqKztICyvTwVh1VX9VrFhRjHvpNTzWrUc+Hy63+woBISxfIemDfr7/9htMnTQe+/b+mxXHCsKNFdLRv18iHnwwVXflDXFxQTh1+tqOoblBxHWK3LjQk40BPYFcVbfHWfdyd2zcEnnOV1GIczgUo0mzOzByzFg0veNOTx4l1/oRASEsP4LradesdP/g3f9hzaoV2bcy+P7ow8lqszpfH7flqXzOricp7d4dgoOHQvB31u9TpzSSMjndB8u2Hy5kjojMxOXLQUjJyi1UrWpGvbrp6vTpmjUz1G8eTJGf5mr/q8tXgzB5bgyWrbF3B7neccCTQ/DU0OEoccMN+Xm03OtDBISwfAimL7pydAuLFDGhUcMU9O2TrA6mKOzGbZN37grFlm2h2LolDCdPBSE93UpMtj+eyKltz8xtmFNSTOqHf4uKzERIKEAPuVKlayTWrFmaium5a41l114l2AfbKeOKdRGqYPTw8WA7kcuWLYPnXnwVHTp18WQocq2fERDC8jPAnnbPavcPJ15zC3k/t3Tp0T1JbepX0NlCzYLasDEMv/8erggqLc2eoDwdozfX89h6jp07ncZdDkKJEmaVjGjVMjVP68vVdsjJqSZM4oZ9y3Nu2Nem7QN4epRkB73RlT/vEcLyJ7pe9H386FG8/85bapmOtj8Wu+EJ0EOeSlJ7mfuzce/0fXtDsHVbKDb8GoZ//w1FUrIJ2oaAzrY69qc8tn1r29Jo8a4qVTLQq0dyrvvLZ+/MwNiVg1fpKthuMpkweuzzGPjUEISF2ReSFtRY5TnOERDCCsCZMWvGNEybOgUXLpxX0oWHB6HkDelqbSF3b8jPflLOhkuS2rkzBL+sDcfPv4Tj7Nlg5d5pJJVfiLgXPA+zSE4y4bbb0lC9mhkhoZk4dMi6X7wKznNjvuIWJMQHoWQpM1KSTUjPMCEhwWR3NiFl0cZPLJ4clIgqlV2UfGQCaitkZgYdLuH46Ap+9nXOtYO1atfC6HEv4f7WbfM7dLnfxwgIYfkYUF909/eunRj/3jtY98tP2d0Vic1E69Yp6NUzWe3H7ou2bVsoVv94jaTyY0VFRGSickUzGjZKV4TC//N4ewbQeVC3OmNqAAAgAElEQVQET7wpV96MxIQgxCdkLS7OBMIjMlV8KjbGGr9iXGrmrCisWhOuSIzWFPeS598ZKzt2/Nohr0FB1q14Vvxw0SkcltSsZThJOT/e9ncYPlkQjW1/228lQ+uKi50HDxuBsuXK+QJm6cOHCAhh+RBMX3b10ZSJmP7xVMRfvbYtJtcXDhuSqPZ7Dw/3LmtGa2rt2jB13h8PKuW+7Vqw3Bv5aRVxk0H+VKhgRmgoicqC2FjrVsruWIOO15A4+UNX9PjxEOzYGYING8Jx7FiwyhrGxGRix85Q9X9u4bx717kcoquq9itWC8ux7ooYfLwgGot+iEKawzLNKlUq4dnnX8UDDz3sDRxyj58REMLyM8Dedv/rhnWYPP59bNuyObuL8DCgadM05QbdeovnC6J5EMSESTHY+FsoUlPzLjlwJjsJiifd1KubgVq1MnBLozTccIM9OblDUu7iopEpCYyn7ezbZy2huPlmjt+EkODMnDEsuoJZB6UyhmXb1B73XDfoJDNota76YvCwZ8S6cldBBXydEFYBA+7u41JSUjDpg/cwd9anSE29tviZh0gM7J+EXr2SQYvLk/bW2zFY+nUkkhz2e8qrD5LDHc3SlRVVu3a6KjcwBZEuALplBdk0ArMlxRwWmuYKckcGB0P02KlgfDgvBj867NvOMdSqXR1jxr2KVhK7KkiVevQsISyP4CrYixnLmvA+Y1k/Z2cMaWVVKJ+B/gOS0P6BVI9cQx7/zqPo6RLFXQrCt9+HZ58TaDsyWlGNb0vHHU3T0Lx5GsqUMSvXjuTkS+vJH2iqrOBVwJKQ0xW0ZAKLuavokiicu2hfd0XratiIZzBo8NOybtAfivFRn0JYPgLSX90smPcZPv5wEk6dPGH3iHvvScOAAYnqqPawMPefTgtl9+5QvPt+DLZtD1XxKy1g3uyOdHWqM62o6KjM7BhUoJOUNnoVt7qaFbdykhVkGcP0L3Pu2c77Gzaqj1HPvQzu3y4tcBEQwgpc3SjJuIvD+2+/pXZxsK3LKhJrUQetdu+erA5G9aRt2RqKBV9EoeQNFrRunYratdIRlUVQerCinI1VkVWClbBY2e7Yjp4KwdTPovHjbznrqiIjwzHquRfQq29/qbvyZCIVwrVCWIUAuqeP/OG7b9Wi6L3/7rG7tdQNFgx5KhEdOqUgwsusoaeyBOT1lqwg+xXAMchOeZNSTPjk82gsWp4zK0hXsMtjnTF0xHPg+YPSAhsBIazA1o+STgXgx7+Hz2Z9qv5t226pn46BAxJx593pHsWzdDBs90QkWSVZLSsLl1o6BNmZXZz/TZQ6XMJxNwY+oHbtahg97jUJtLuHdqFfJYRV6CpwTwDu5DDhvbexetUKO9eQdze7LQ0DBiahcZN03W1B497onV/F+ipLYhZZsXzBCVmt3BCBWYuicchhcTN7LF48Bs+MeR6Pd+8trmB+FFGA9wphFSDY+X3UT2tWYcrE8WD20DaexX4fbpOCp55KxE01rBk9ozcVsyJZsTDUC7IKCjKh/6D+eGroGNk+RkeTRQhLR8qiqF/MZ9Zwssoa2pIW67Nat0hFj55JqF3PbGhLi0F1EhWD7M4C7FpxKPdpd2ZZMW718CPtMOyZF1G9Zk2dzYDrW1whLJ3pnzGsubNmYNaM6bhw3n5JCkmr84PcOysJFW4yw2RfaqSzkToXl3EqkhVdQccFzbyDtVbb/rKWLziuE+TntD4bNqyDkWNfR/N7pIRBb5NCCEtvGgNw5fJl8Hj7L+bPQ0qK/QF7JK1ujyaja+dklKtsQUSMd2sOAw0WFa9KthaE8jAJx/WBiqwsAGutZix0XmtFsmpQvzpGjXsDzVvcH2hDFHncQEAIyw2QAvES1mdNnTgBXy1emIO0KG/TW9IwuG8iGjdLRzD3p9NxXIsxKlVjleQ8XkVKZvX+dz9H4PNvonDidE7TkmRVtkwJDB89Fh27dJcgeyBOajdkEsJyA6RAvSQv0mp0czoG90pEszvSEBILBHlQER8IY6bLR2uK7p+yqpxse8V41ZkLwVj4faQiLGelCySrcmWL4+mRz6Jj115CVoGgXC9lEMLyErhAuS0v0qpaKQM9OiSj+Z2pKFEmE5HFMmGyP9w4UIaSLQfdvcxUaxZQERUr1514tnQBj50KwcxFUVizMSLHVjFazKpB/SoYMmIcWtzXXsgq4LTtmUBCWJ7hFZBXZ5PWkoVITUnOcVIN41rt701Fz85JuKlqBkKigaBIBBxxZRNVkpWokOE8VkWritXra36NwPxlPF7eeXZBxawa3IRRz76C5i3bB6TuRCjPEBDC8gyvgL2apDV/zmwsXrgAF86fz1GnRcHrVM9A3y6JaN4kDZGxmQiOsBKXchULMcZFC0q5fvzhGbIuiIpjMFuA3ftC1TmCv20Pd2pV8TquiWSAfSQXNN/7QMDqTQTzDAEhLM/wCuirWfKwcMF8cE/4kyeOOyUtWlv335WKXh2TUP2mDASHAkHh135M3DG4AMiL8Si6fSQoliowsO7K9SPodP/irgbh69URWLIiMsf2MLaKCQ424f7778SwkS+ibv3GAa0zEc4zBISwPMNLF1ezIn7q5In4a+cOWPimO2kVyprxSKsUPNgiBWXLmK3EFWJ1E2lxmfiT9X9fEJhy90hKaYCFvzWCInG5OkMi6yCMy/FB+Om3cLWlsSv3T4tXFS8WiT79eqF77+EoUbK0LvQlQrqPgBCW+1jp6koeFzZ1ykR8/80yVfbguJRHG4xGXPfdkYrypc1qbyxFXNxJNNj6WwXps/6milH5N35OS0yzxhgUzzpMFeRIElQWGdFyUqTE/2f9XV3jorH4kzx7/HQIvv0xAivWhedqUWkuYM2aFTB0+Ei0fuBxCa7rara6L6wQlvtY6e5KuojLli7GrOnTcPjQQZfWFgdWJMaC2xuko1ObZDSsY935IYiHSGQRky1BqbWKtmSlIaNl8myJi/8mOeVRv6qR1JWrQdi1N1QF1DftDHVapmCrCMoSGRmKVq3uwqCho1G3flPd6UkEdh8BISz3sdLtldzpYfan07BqxQ+4evUKLGSHXBpLIe5tkoqmjdJRo0oGYqItVvJy8xScvIDKPlhCEZsJV+NNHpGU1n9wkAk1a5ZHv0GD0fbBJxATWySvR8vnOkdACEvnCnRXfFpbv23coPbU2rp5k9pXy5WbaNtnqRIWNK6Xpirn69ZIR9lSFoSFZm2frB1qauMW5qBCkhI7VL9NSEkFTp0Lxt97Q7F9dyj+3heKsxeCXWb7nI2PGcDixaLx+BMd0b3PUJSrUM1dGOQ6nSMghKVzBXoqPtchrlzxA+bNmQlaXhazGRYPzp+n61iutBlVKpgVed1UMQPFYklgmSrOdO6C/TE6qekmnDwbpFy7E2eC84xFuRqPOgTDZEKxYlFo164levUfghq1JQPoqf71fr0Qlt416KX8JK7ff9uILz+fq84+TElJzTXG5eVj8n0biYquX6VKJdG6dUt0fKyPEFW+UdVvB0JY+tWdTySna7h96xZ1yMXGX9fi4oWLirjyinP55OEuOrEeKWZCREQo6ta9CZ07d0TL1p1wQ+nK/nys9K0DBISwdKCkghKRVtfan3/CsqULVQ1XfHyCIq7MTEuO5T6+lEklHNWZhyZFVNWrl0erVvfg/rYPo9bNTREWHu3Lx0lfOkZACEvHyvOn6CSvP7dvw4Z1P2LzHxtx9MgxpKamqUD9tR/PJdAyjSaYrFnHoCCULlUUDRvWQpOmt6PpnS1RpVpDISnPob0u7hDCui7UnP9Bnj1zBv/s/huHDx3Agf37cejgARw8sB+XLl50u/Pw8AhUrFQJVatVR4WKFVGvXn00uvU2lK9QQQo93Ubx+r5QCOv61r+MXhDQFQJCWLpSlwgrCFzfCAhhXd/6l9ELArpCQAhLV+oqGGGTk5Nx9epVHDt2DLVq1UKRIrLkpWCQl6fkhYAQVl4IXYeff/vtt3j00UfRoUMHDBo0CA8++OB1iIIMORAREMIKRK0Uskyff/45evbsiWbNmmHatGlo0KBBIUskjxcErAgIYclMyIEASWrw4MFo2LAhFi5cqNxCaYJAICAghBUIWggwGd58803s2bMHiYmJmDx5MipXDpwlMVw2dPz4cfz99984dOgQbr31VjRq1AjR0YVTDZ+RkYGDBw/i119/RWpqKmrWrImTJ0/irrvuQtWqVRHErSWk+QwBIax8Qpmenq6WlISEhCAtLQ3x8fF2PYaHhyMmJiafTynY20lYHAeJ4cMPP8QNN9xQsAK4eBqTAe+++y7i4uIUORw+fBjnzp1DVFQU2rdvj8cff1yRhLuNFfsnTpzAL7/8gvPnz2P37t24cuUKypYtizvuuANNmzZFjRo1nHZH4vz555/x4osvYsuWLdnX3HLLLahbt66Sj271Pffcg2LFirkrklyXBwJCWF5OEZITX55XXnlF9dClSxf14mjfqDt37sSff/6J2NhYtGrVCvfddx/atGmjvoFJcP5sGnHy2WFhOU9P5ef79u1DpUqV7DKAfAn5Aj/zzDPqRTWbzSB5cVyF3WjJfPDBB3j++eeVKKVLl1ZfBLSy2CgvLS26s8WLF89TXPY3YcIEbN68WWFATEg8nTp1Uvf++OOPaN68OUaNGoUbb7zRrj/iMn36dEV0ixcvxmuvvYbRo0erfkiqf/31l8Jt79696NatmyI1fnFJyz8CQlj5wPB///ufmoy27YknnkCJEiXwww8/4OjRo3aftWjRAsOGDVPk5i/SOnLkiHpZ+EJv2LBBWX4kTP7cdtttSEhIwJAhQ9C4cWPcdNNNyjKZN2+ekpkv/x9//IFly5bZyX3vvffiscceU39LSkpSY4iIiMgHcp7fSjz58teuXRsvvPCCslwoM3FcunQpOnfurDrllwjJIzjY+VmF2pPXr1+P8ePHK1LmFwnvp2XF/vhlQwwWLFiA1q1b4/XXX0epUqWyhaa7/NRTT6myjx49eqg54OiSnj17FsOHD8fKlSsVvsy6Sss/AkJY+cCQ2TS+/F988YV62UeMGKHKAPitzMlPC4eEwca4xpdffomvv/4a//3vf0Hy8mWje8OXg/KQKNk/4yjffPONcnVIYLRC6tevr/5G4nr55ZeV2/Lss8+qjCBdGb6MJDy6WmzPPfecstJYl0XSoNvFz/MiBF+OjX2RYDim+fPnK5KwbadPn8Ynn3yirB3G20gQJUuWdCkCY3O01GhlzpgxQ1maju3SpUsYM2YMVq1apfp+5JFH1CW0xHgvrbOxY8cqDKlnZ4198FpaV+PGjcthqfkao+uhPyGsfGj5n3/+US8HJy7/fffdd+M///lPtpvo2PXGjRsxa9Ys5WK9/fbbTgPFJB6SA10WNl4bGRmZp5Tbt2/Hk08+qSym0NBQRZwkS8Z7Nm3apFwl9kWiouvEl/vpp5/Gww8/rKwn1lrRxWIAmcSqNVoxtMQuXLiAevXqoV27duq+gm7Ejvg6IyxiNmnSJKxYsQK0bPLKbDL2RHInkbz00ksurUW6i3PnzlXZUuJJ64tfBt27d1f3UvcVKlTIFYozZ84oUrz99tvRtm1bv1nWBa2PwnqeEJaPkNdeqNwIi5mt//u//1PZtzlz5tgFsxn74EvEb3S+DPz2ZyyGLliVKlUwcuRI9dtZ47f+O++8o+5nsJeEU716dbtLGZ/atWsXpkyZokiTjbLSfaLrqLl4jLvQqmLQnS8qYzqUh1bW5cuXVQyOL2x+XVrKTBJkzI/WX17ZtNwIi2P5/fff1bhJXowp5ZYoYCJh69atikTo3rpqDMQzS8pM5P33368sKc3S++qrr7LjXXlNoe+++04lMOh2lilTJq/L5fNcEBDC8tH0YMCWcY2OHTu6tLBIBnSpGICnhaUFxPmS0b3s1auXsmBIOowxMQBOt459r127VsVc2L8jWfDlp2tC14WE4oywtGGy74kTJypLiqRG69C28SXt16+fiu0w42Xr/jEjSqvNW7LiOEnafOlJkLRWaPExqM3iVOLiirjyIixP1EgLbPny5cqypEXqqtE9pks3YMAARd50N2mpvvHGGyAJMSboTjt16pRKGPB5zDxK8x4BISzvsbO7U3uhGL+yJSPtIrp4s2fPVm6bo1vDF4MkwbgXA8sPPPBAdvaO8ZmPP/5YZZyYfaIrx1iTbSO5MFvJJABbXt/+JA4SBV1NLcam9Xfx4kUVI2J6n/0x4O6LRguPFiAtoTVr1uChhx5S7irJuHz58sqVo6vKWA9xYKOMdLU57h07dqgSCyYsOFa6Yu66y47ysxyCXw60nGiZOnO5aRGxeJbWMAPutHD55fHee++pID8tZHcLamklM05I0uOXmjTvERDC8h47p4TFCcmArO1LQKuGaXC6gwzksmxAS3OTbPiN/f3332PmzJnKqnFsfGn4YvGlpktBl8cx6E0Xh/0yzkSLi5Ycs195uVqOz6KFRZdv//79Sq4+ffr4BKHVq1er2BddNQb0tUwe40QkJbpbjJXxM5ICEwQkM1o3JE0WZrJMhO4jMeK/SSAkc0/dLOqDxE8rkzE8EpfjFwCzjcz+MdjOcgUS1s0336xiXiRdTwhLqx+rU6dOdrbVJ6Beh50IYflI6ZqFxW/uqVOnqoMcaDnxpePLSkIi6fBFtbVqWIbATB0D3rRsmLZnrIruIl8Uzf2ie8g0Ob+t6frx5bZttJrWrVunUv4sTaDrSJevYsWKHlWDa26rRhyOGTlv4KKV2Lt3b5WtbNKkiYoL2WbmtBeaJERSIOGylICWFUmDn9OaYt2T1uiO0b3q37+/266ZrezUDbO1dFFJyiRG4s0vB5Ig43uM45FIKROD75SZFjQtRGaGORZ3GuVnXJC6LYyEhTsy6uUaISwfaerff/9V354sX2BNDic+XQASCa0hWgW0qpjBI/Ew+8bGb2taXnxZ+WJ37dpVfeuzP8aiGOhmnKVatWoq+8UXjeTnKvZCC4nXffTRR+rali1bqpIFEh9fONZjsS9XcSgG5ul20cJylpHzFC5akCQounNFixZV8TPWUDmzIt966y3wp2/fvopMiCFxIOkyfkZSITYDBw5U8a9y5copS8xTK1J7NvElETHDSpedrjZJleUIJCq6rYwdMr7GGCP/xpgWdUqiZImIO41fMrR+GZcUl9AdxFxfI4SVP/yy72YRIa0IWjl0I7i0gy4LYyGMxdD1oQvC6/g5SYrExheZLiRfSmbNaF2RUPhy8DetJVppdIWYQXR3QTJjUMw08mVkGp+lDSwL4EvJGBEtQcf4FQfDWBHjSLQKfUFYDDjzZV2yZImK7dEldvZcPluLn3GcjnE44kAXl5aKtrogv6ojSZGI6GLbFvkyuM4EB4mJ5E2rVUs+aL/ppt55551uiaC52SRqX8nu1oMNeJEQlo+USrOf7gKbYwxLewSDzJ999pkiEmbzWGhKN5ExG37bs6qazbYWi/3yG1+r96E1QUtFsyroijK+w9hVbhkvWn6UjxYUyYqkRVfIkTxIWHQ5mQ2j9UESzk/TLDYGrlk5nttCao2waG2S2GwzmHTDmARgFtUxs5kf+XgviYsuN91zNn5R0AKmO8ovGtvkA/XHLxBiTVncaZr1TetZCMsdxMTCyh9KbtztDmFpLwe/0X/66ScVByHZkCBIXgyUe9JIbAyM03qh9eSKKLU+GbRnOp7WEwsaSSCO6+RsCSu3mjJ35dS2qqGl8umnnyqyddVsLSzHZ9MSYnCeFezaF4O7MnhzHWN5rNGiS8uiVG1PMJZkUH907UharqrcbZ+pbYhId5fWmjTvERALy3vs7O6k9aSVJuRFHLSKWLpAt4fZPX6Tu2PNMJDPWI6WYdRiIyQCd11F7eWh8CRLuq22jdYAM2QswcgvYTFozbHR7XWWPXWEXiN9ulBMTtjKRsJiJTuJw9cWlqMcdA9JVgz0M2ZF61WrmWNsjxYqs520vPLa3NC25IRLorQlPj6adtddN0JYPlK5uxYWH6ct72Aci+4I630YE2Fw2tW+TryOVepcDsIsJGNktEg0l5L98iVnn7kt5eH9vIcuIV84VnvbNi3byWUk3K2AfbqzNMgZjFrJBuM+tCBJhLntWkC3jCUVrPDnPbZkoFWY55dEc1M3LVbGz1jCwOVRJBcmAJi00BpLIviFRBeeFhYtXFcxOdv1nUwYkOhcrVbw0TQ0fDdCWD5SsbYoloFzEkpurgIzUYxnsKaHrhxjSQxOc82Zq0XRdFH48jD4TMuDAXE+gxYMa7y0eApfHr5EzEo6ZgLpBjLDxkXMriwyjbD4OUmL/efmxuUFH+NRtOroGvIld5YhZB/a9jG0NBm/4lhta80oF9fzcakQScvbzKArefmFQ9ePFfC0rIgndcPMnmOjlcUxEWdmY0myjvLYlkeQpHgNs8OFtdFgXnrSy+dCWD7UFC0WZgnpvrhay8aJTJdG20uJG84xJsMXmluQ8LdjISRdQcadmGXjZyx1YA0Qa3qYNWOwmBYByWrbtm0qYMyXmuSkWTR0z1gqwCpvpuoZTKc15mjxaEFyZjZJerSMWArBvmldsCzDE7Kgq8znkGBpzdGKdNxkj+NjPG3o0KGKIGwXFbM0g43ykNCZTfVl4JpESVIlXiwXYWNdHMnI1WaAvIdExdghrVA2uvgssaC8rOjnPOCXCxuzmyRD1mFJyx8CQlj5w0/dzReOLya3jmE8iVaC47INTnJOYlZYcykKU/2a5ULrgQWadBVZ8EmXjUWftJBIcFyszEwiCYRBZ2YN2QevY9kE925ivRXjLAwIay+es6HxBaP1QBfFWYU4ZWAsjtYbSU4r1mQKn9mzV199NcfC6rwg5EtMkqZczBKyD46T46f8JCISGYtnSWxcU6g1kj/HSVKmPLyfO0uQTFg5ThJkyYc3jVsCkfAZy6MbysJRuoG08PJyg6kDrt/kmDQ3ljIxrkjXlu4wLUpahVyOJZaVNxrKeY8QVj5xZI0TYx6sytYaLRK6dlqglrVXzAqy0JGWDd1B222TGetgQJmuHQtJWcVOK4rWBN0Pupu0mrg5IF8m/p8Wj7OXgMTIb3ZmA7l8RNvXirKRhPiCMi7l6gXSKuZJokwK0PrQmruBfWeQsqKcu0KwJIDykyQcNzh0VqdFwqIMxJDBeGY16VLzb8SZi4oplzeNlqZGUCREVs8z2O7u4m7Kw6A8dUu9kJj55cUSEsYk6dYGyvbS3uATiPcIYeVTK6wqpytIMiJZaJXt7JbuExf0koAYD6GF4ipAy+tJLiz05Lc2s4e0hpihYg0TXSVPLAkG5El+KSkpSi6SBPugVeLOC8nrWUZA4tQaSZbV3d5u98vxLVq0SFlRLGSlC0XCIBmx7IEusWPfjC3RatEax3LgwAGVLaUlw21ftMXSnqqSKwsYbyTWXHROKzc3/Tjrn/omRpSJ1jDjbrSuPdGVp3Jfz9cLYeVT+3yx2ZztnZ7PruV2PyOgHUJBd1BvB4X4GZqA7V4IK2BVI4IJAoKAIwJCWDInBAFBQDcICGHpRlUiqCAgCAhhyRwQBAQB3SAghKUbVYmggoAgIIQlc0AQEAR0g4AQlm5UJYIKAoKAEJbMAUFAENANAkJYulGVCCoICAJCWDIHBAFBQDcICGHpRlUiqCAgCAhhyRwQBAQB3SAghKUbVYmggoAgIIQlc0AQEAR0g4AQlm5UJYIKAoKAEJbMAUFAENANAkJYulGVCCoICAJCWDIHBAFBQDcICGHpRlUiqCAgCAhhyRwQBAQB3SAghKUbVYmggoAgIIQlc0AQEAR0g4AQlm5UJYIKAoKAEJbMAUFAENANAkJYPlYVj1bniclvvPFGjlOE9+7di9dffx0ffvih3RHmx48fx1tvvYVDhw4padq3b49BgwYhMjJS/f/w4cNYunQpRo4cqU4Wtm0zZ85UpzE3adIEPO35o48+wrPPPqvu5f8HDBigTiQOCgrKvu2hhx7C8OHD1f95sjL7WLlypTpNuUyZMuo5t9xyS54nRFMunnr9zjvvgIeR2jbicOHCBYwYMcKuH2KwfPlyjBo1Sl3uKKPZbFYnZL/wwguoUqVKrtp588031anPAwcOzCHr+vXrsXjxYrz77rsKC8fnah1z/O+//z6GDh2arZMdO3Zg0qRJOHPmjDp6/sEHH1TPiI6OVrdxbJTtrrvuypYvNTVV6Yif8d/EY/To0WjatGmeOPp4Chq6OyEsH6uXE3b27NkYP348GjRokN07j1j/v//7P+zevRuffPJJ9suxf/9+RWB8Qfny8TTidevWYcWKFYrc+LLxdGmSQs+ePdWx91qLi4tTR63z5efL5IywbAnM2VApS82aNXHfffepj0luv/76K1q1apXnse0LFizAqVOncOutt2bfrz2DOJDMKF+LFi2yH+2MsBxlPHnypMKKZFenTh2XGmL/PPKez6hQoUL2dVevXsW4ceOU/J4S1rFjxzB9+nSlD2JKfezatQtRUVGoUaOGU8KibqdMmYIbb7wRnTt3Vl8O8fHxeOWVV5TOGjdu7ONZdv12J4TlY93zReUE5ovMb9jw8HD1hK1bt+KHH34ALYhnnnlGERb//cEHH+DRRx9FrVq1siXhS8J+ypUrp4iD7aeffsK5c+fQrVu37Osc/+YpYdG6IBEOGTJEWVaeNJLl3Llz8fjjjyuLqW/fvnbWH+UPCwvDjz/+aGctuUNYlIMkQbzGjh2bw6rU5JwwYQJKlCiBpKQkDB48ONuS+eabb5RVStLQrE13LayNGzcqa6x///4u4XC0sKhbfsk4WsCaZatZyp7gK9c6R0AIy8czQ5vM+/btU67NPffco1wEWlwkpq+++irb/SCpzZgxQ1kDERERdpIcOHAAS5YswXPPPadeWEdrimQ3ceJEdOrUKdvq8pSw+EBaJ2y9evVCkSJF3Ebj559/VtfSMqPrRSvC1vrTcCChfF/wVV4AAAarSURBVPbZZ3j55ZeVxeIuYZFsSKZjxozJ4W7aElabNm3w3XffoWPHjor0iROJrHfv3vjiiy88JixaWHQ16TLXq1fPzpW2tR5tXUK61I0aNcJtt93mNn5yoXcICGF5h1ue375Vq1ZVrgUthC1btuDgwYN47LHHFHFp8RJX3/rs3JF8+DdaNHSRGK9yFtdyRlh8FolIi32VKlVKvcRFixZVY6A1uHbtWsyfP1/FbFq3bq1edl7nqpEsSQYkCZIQZaGV0bVr1+xbNMK688471bWU7emnnwaJ3DGG5cxtdRZbcpSHxMT4EsewZs0aRTKLFi1S1ivJw7Zfdy0sPoNfJMSDpEw3vV+/fmjevHk2eTlaWJoctlayj6eVdJeFgBCWj6eC7WTmi0qiYBCexBEbG2sX4OWLQeuDriPdJ9vmaGHxM8a/6HrQhaNVw295kpfWvLGwbJ/JF5/EQ8vt7bffdhn0JkExxlOsWDF1O11Yys/EAcfIZouDFuNhrIsE4A5huWthkbCqV6+uYkiMMfHLgRYr3UR3CIsWGd1y3qPJbosJP2eMkWMl4ZpMphxBd1rJN998s10Q3sfTSroTwvLPHLB9UTnZ+a1Py+qRRx5RGTnbjJQnMSxKq7mWXbp0UZYEXyDNUnJmlTmz0twZNUmU7qxtFsz2Plp6dJdsXaBvv/1WkZFGoI5WyPnz5/Hqq68qt3jPnj12WUJnFpa7MSwSFi2bI0eOKKxfe+015Z46jv3KlSuKiBlnssWMXwKrVq1S8pCMnDXKThlpLTMe5Tg29rFs2bLsQL/WB/VFnWvE7g72ck3uCIiF5eMZ4jiZT5w4oVwUTnRnbg5fXmbqHLOEDDgzS6il0jUxGWhnzIZlB3369LGT3lMLi9eTfBjIZ4BfI0Vm1hgbq1u3bg50SMK0ZviC21okji6qs9Q/x8qXnm4ix+uMZPk3ZglJPLR6tMycMzXZumK08o4ePaoydcwOOiPrhQsXqtKN7t27Z2fyWH5CF1jL6BJ3trZt22ZnSbdv365ITUsAOI6NzyahMZPIWCCfz4A7CfLuu++2y5L6eLpdd90JYflY5c5eVO0RruIyedVhOboofJH5wtsGuV1ZWM7qsGgFvfTSSyrQT8tk8uTJKitH95UvHS2Vli1bOrU4Nm/erCwkR7KkNcEyA/6dcrnCYfXq1WAfDMJrMtvK6EkdVm6xI2eERdeUiQzGp1zVSvHv33//PebMmYOUlBRFbKylomXGBAKbs7HZ9u1pPZuPp6ChuxPCMrR6ZXCCgLEQEMIylj5lNIKAoREQwjK0emVwgoCxEBDCMpY+ZTSCgKEREMIytHplcIKAsRAQwjKWPmU0goChERDCMrR6ZXCCgLEQEMIylj5lNIKAoREQwjK0emVwgoCxEBDCMpY+ZTSCgKEREMIytHplcIKAsRAQwjKWPmU0goChERDCMrR6ZXCCgLEQEMIylj5lNIKAoREQwjK0emVwgoCxEBDCMpY+ZTSCgKEREMIytHplcIKAsRAQwjKWPmU0goChERDCMrR6ZXCCgLEQEMIylj5lNIKAoREQwjK0emVwgoCxEBDCMpY+ZTSCgKEREMIytHplcIKAsRAQwjKWPmU0goChERDCMrR6ZXCCgLEQEMIylj5lNIKAoREQwjK0emVwgoCxEBDCMpY+ZTSCgKEREMIytHplcIKAsRAQwjKWPmU0goChERDCMrR6ZXCCgLEQEMIylj5lNIKAoREQwjK0emVwgoCxEBDCMpY+ZTSCgKEREMIytHplcIKAsRAQwjKWPmU0goChERDCMrR6ZXCCgLEQEMIylj5lNIKAoREQwjK0emVwgoCxEBDCMpY+ZTSCgKEREMIytHplcIKAsRAQwjKWPmU0goChERDCMrR6ZXCCgLEQEMIylj5lNIKAoREQwjK0emVwgoCxEBDCMpY+ZTSCgKEREMIytHplcIKAsRAQwjKWPmU0goChERDCMrR6ZXCCgLEQEMIylj5lNIKAoREQwjK0emVwgoCxEBDCMpY+ZTSCgKEREMIytHplcIKAsRAQwjKWPmU0goChERDCMrR6ZXCCgLEQEMIylj5lNIKAoREQwjK0emVwgoCxEBDCMpY+ZTSCgKEREMIytHplcIKAsRAQwjKWPmU0goChERDCMrR6ZXCCgLEQEMIylj5lNIKAoREQwjK0emVwgoCxEBDCMpY+ZTSCgKEREMIytHplcIKAsRAQwjKWPmU0goChERDCMrR6ZXCCgLEQEMIylj5lNIKAoREQwjK0emVwgoCxEPh/7Gj/io6YlzsAAAAASUVORK5CYII=;" vertex="1" parent="1">
                    <mxGeometry x="275" y="140" width="300" height="300" as="geometry"/>
                </mxCell>
                <mxCell id="25" value="" style="rounded=0;whiteSpace=wrap;html=1;" vertex="1" parent="1">
                    <mxGeometry x="40" y="1110" width="760" height="60" as="geometry"/>
                </mxCell>
                <mxCell id="26" value="Created for Daniel Faria&lt;br&gt;2023" style="text;html=1;strokeColor=none;fillColor=none;align=center;verticalAlign=middle;whiteSpace=wrap;rounded=0;" vertex="1" parent="1">
                    <mxGeometry x="310" y="1125" width="220" height="30" as="geometry"/>
                </mxCell>
            </root>
        </mxGraphModel>
    </diagram>
</mxfile>